<?xml version="1.0" encoding="UTF-8" standalone="no"?>
<!DOCTYPE svg PUBLIC "-//W3C//DTD SVG 1.1//EN" "http://www.w3.org/Graphics/SVG/1.1/DTD/svg11.dtd">
<svg width="100%" height="100%" viewBox="0 0 1399 248" version="1.1" xmlns="http://www.w3.org/2000/svg" xmlns:xlink="http://www.w3.org/1999/xlink" xml:space="preserve" xmlns:serif="http://www.serif.com/" style="fill-rule:evenodd;clip-rule:evenodd;stroke-linejoin:round;stroke-miterlimit:2;">
    <g transform="matrix(1,0,0,1,-1054.678384,-4282.912796)">
        <g transform="matrix(1.389883,0,0,1.389883,-1806.12859,2411.112062)">
            <g transform="matrix(3.734508,0,0,3.734508,-2922.094537,-463.334252)">
                <g transform="matrix(50,0,0,50,1391.352615,526.669447)">
                    <path d="M0.341,-0.023C0.334,-0.02 0.324,-0.015 0.311,-0.01C0.298,-0.005 0.284,0 0.267,0.004C0.25,0.008 0.233,0.01 0.214,0.01C0.193,0.01 0.173,0.006 0.155,-0.002C0.137,-0.009 0.123,-0.021 0.112,-0.037C0.101,-0.054 0.096,-0.074 0.096,-0.099L0.096,-0.45L0.025,-0.45L0.025,-0.519L0.096,-0.519L0.096,-0.693L0.184,-0.693L0.184,-0.519L0.301,-0.519L0.301,-0.45L0.184,-0.45L0.184,-0.126C0.185,-0.107 0.192,-0.094 0.203,-0.085C0.214,-0.076 0.228,-0.071 0.243,-0.071C0.26,-0.071 0.276,-0.074 0.291,-0.08C0.306,-0.086 0.315,-0.09 0.32,-0.093L0.341,-0.023Z" style="fill:rgb(226,227,216);fill-rule:nonzero;"/>
                </g>
                <g transform="matrix(50,0,0,50,1411.452615,526.669447)">
                    <path d="M0.071,-0L0.071,-0.522L0.159,-0.522L0.159,-0L0.071,-0ZM0.071,-0.62L0.071,-0.73L0.159,-0.73L0.159,-0.62L0.071,-0.62Z" style="fill:rgb(226,227,216);fill-rule:nonzero;"/>
                </g>
                <g transform="matrix(50,0,0,50,1424.952615,526.669447)">
                    <path d="M0.858,-0L0.77,-0L0.77,-0.289C0.77,-0.344 0.761,-0.384 0.744,-0.409C0.726,-0.435 0.7,-0.448 0.665,-0.448C0.63,-0.448 0.598,-0.435 0.569,-0.41C0.54,-0.384 0.52,-0.352 0.508,-0.311L0.508,-0L0.42,-0L0.42,-0.289C0.42,-0.344 0.411,-0.384 0.394,-0.41C0.377,-0.435 0.351,-0.448 0.316,-0.448C0.281,-0.448 0.25,-0.436 0.221,-0.411C0.192,-0.386 0.171,-0.353 0.159,-0.313L0.159,-0L0.071,-0L0.071,-0.519L0.151,-0.519L0.151,-0.407C0.172,-0.445 0.2,-0.475 0.234,-0.496C0.268,-0.517 0.306,-0.527 0.349,-0.527C0.392,-0.527 0.427,-0.515 0.453,-0.492C0.479,-0.468 0.495,-0.438 0.501,-0.401C0.524,-0.442 0.553,-0.473 0.586,-0.495C0.619,-0.516 0.657,-0.527 0.7,-0.527C0.73,-0.527 0.755,-0.522 0.775,-0.511C0.796,-0.5 0.812,-0.484 0.824,-0.465C0.836,-0.445 0.845,-0.422 0.85,-0.396C0.855,-0.37 0.858,-0.341 0.858,-0.31L0.858,-0Z" style="fill:rgb(226,227,216);fill-rule:nonzero;"/>
                </g>
                <g transform="matrix(50,0,0,50,1471.652615,526.669447)">
                    <path d="M0.302,0.01C0.263,0.01 0.227,0.003 0.195,-0.011C0.162,-0.026 0.134,-0.045 0.111,-0.07C0.087,-0.095 0.068,-0.123 0.056,-0.156C0.043,-0.188 0.036,-0.223 0.036,-0.259C0.036,-0.308 0.047,-0.353 0.07,-0.393C0.093,-0.433 0.124,-0.466 0.165,-0.49C0.205,-0.515 0.251,-0.527 0.303,-0.527C0.356,-0.527 0.401,-0.515 0.441,-0.49C0.479,-0.465 0.51,-0.432 0.531,-0.392C0.553,-0.352 0.564,-0.309 0.564,-0.263C0.564,-0.256 0.564,-0.25 0.564,-0.243C0.563,-0.237 0.563,-0.232 0.562,-0.229L0.129,-0.229C0.132,-0.195 0.141,-0.166 0.158,-0.14C0.174,-0.114 0.195,-0.093 0.221,-0.078C0.247,-0.063 0.275,-0.056 0.305,-0.056C0.337,-0.056 0.367,-0.064 0.396,-0.08C0.424,-0.096 0.443,-0.117 0.454,-0.143L0.53,-0.122C0.519,-0.097 0.502,-0.074 0.48,-0.054C0.457,-0.034 0.431,-0.018 0.401,-0.007C0.37,0.004 0.337,0.01 0.302,0.01ZM0.126,-0.29L0.482,-0.29C0.479,-0.324 0.47,-0.353 0.453,-0.379C0.436,-0.405 0.415,-0.425 0.389,-0.439C0.363,-0.454 0.334,-0.461 0.303,-0.461C0.272,-0.461 0.244,-0.454 0.218,-0.439C0.192,-0.425 0.171,-0.405 0.154,-0.379C0.138,-0.353 0.129,-0.324 0.126,-0.29Z" style="fill:rgb(226,227,216);fill-rule:nonzero;"/>
                </g>
                <g transform="matrix(50,0,0,50,1503.202615,526.669447)">
                    <path d="M0.037,-0.258C0.037,-0.307 0.047,-0.352 0.068,-0.393C0.088,-0.433 0.116,-0.466 0.151,-0.49C0.187,-0.515 0.228,-0.527 0.274,-0.527C0.316,-0.527 0.354,-0.516 0.387,-0.494C0.42,-0.472 0.446,-0.445 0.465,-0.414L0.465,-0.73L0.553,-0.73L0.553,-0.1C0.553,-0.089 0.555,-0.082 0.559,-0.076C0.564,-0.072 0.571,-0.069 0.581,-0.068L0.581,-0C0.564,0.003 0.551,0.004 0.542,0.004C0.525,0.004 0.509,-0.002 0.496,-0.014C0.484,-0.026 0.477,-0.039 0.477,-0.054L0.477,-0.098C0.456,-0.065 0.429,-0.038 0.394,-0.019C0.359,0 0.323,0.01 0.286,0.01C0.25,0.01 0.217,0.003 0.186,-0.011C0.156,-0.026 0.13,-0.045 0.107,-0.07C0.085,-0.096 0.068,-0.124 0.056,-0.156C0.043,-0.188 0.037,-0.222 0.037,-0.258ZM0.465,-0.182L0.465,-0.33C0.457,-0.353 0.444,-0.373 0.426,-0.391C0.408,-0.409 0.388,-0.424 0.365,-0.435C0.343,-0.446 0.321,-0.451 0.299,-0.451C0.273,-0.451 0.25,-0.446 0.229,-0.435C0.208,-0.424 0.19,-0.409 0.175,-0.391C0.16,-0.373 0.148,-0.352 0.14,-0.329C0.132,-0.306 0.128,-0.282 0.128,-0.257C0.128,-0.231 0.133,-0.207 0.142,-0.184C0.15,-0.161 0.163,-0.14 0.179,-0.122C0.196,-0.105 0.215,-0.091 0.237,-0.081C0.258,-0.071 0.282,-0.066 0.307,-0.066C0.323,-0.066 0.339,-0.069 0.356,-0.075C0.373,-0.081 0.39,-0.089 0.405,-0.1C0.42,-0.11 0.433,-0.123 0.444,-0.137C0.455,-0.151 0.462,-0.166 0.465,-0.182Z" style="fill:rgb(105,226,40);fill-rule:nonzero;"/>
                </g>
                <g transform="matrix(50,0,0,50,1536.152615,526.669447)">
                    <path d="M0.03,-0.15C0.03,-0.183 0.04,-0.212 0.059,-0.236C0.077,-0.26 0.104,-0.279 0.137,-0.292C0.17,-0.305 0.209,-0.312 0.253,-0.312C0.276,-0.312 0.301,-0.31 0.327,-0.306C0.353,-0.303 0.376,-0.297 0.396,-0.29L0.396,-0.328C0.396,-0.367 0.384,-0.398 0.36,-0.421C0.336,-0.444 0.302,-0.455 0.258,-0.455C0.229,-0.455 0.202,-0.45 0.176,-0.44C0.149,-0.429 0.121,-0.414 0.092,-0.395L0.06,-0.457C0.094,-0.48 0.128,-0.498 0.162,-0.51C0.196,-0.521 0.231,-0.527 0.268,-0.527C0.335,-0.527 0.387,-0.509 0.426,-0.472C0.465,-0.435 0.484,-0.384 0.484,-0.319L0.484,-0.1C0.484,-0.089 0.486,-0.081 0.49,-0.076C0.495,-0.071 0.502,-0.069 0.512,-0.068L0.512,-0C0.503,0.001 0.496,0.002 0.489,0.003C0.483,0.004 0.478,0.004 0.474,0.004C0.453,0.004 0.438,-0.002 0.427,-0.013C0.417,-0.024 0.411,-0.036 0.41,-0.049L0.408,-0.082C0.385,-0.053 0.356,-0.03 0.319,-0.014C0.282,0.002 0.246,0.01 0.21,0.01C0.175,0.01 0.144,0.003 0.117,-0.011C0.09,-0.026 0.068,-0.045 0.053,-0.069C0.038,-0.093 0.03,-0.12 0.03,-0.15ZM0.37,-0.113C0.378,-0.123 0.384,-0.132 0.389,-0.142C0.394,-0.151 0.396,-0.159 0.396,-0.166L0.396,-0.23C0.375,-0.238 0.354,-0.244 0.331,-0.249C0.308,-0.253 0.286,-0.255 0.264,-0.255C0.219,-0.255 0.183,-0.246 0.155,-0.229C0.128,-0.211 0.114,-0.187 0.114,-0.157C0.114,-0.14 0.119,-0.124 0.128,-0.109C0.137,-0.093 0.15,-0.081 0.168,-0.071C0.185,-0.061 0.207,-0.056 0.233,-0.056C0.26,-0.056 0.286,-0.061 0.311,-0.072C0.336,-0.083 0.355,-0.097 0.37,-0.113Z" style="fill:rgb(105,226,40);fill-rule:nonzero;"/>
                </g>
                <g transform="matrix(50,0,0,50,1565.352615,526.669447)">
                    <path d="M0.347,-0.445C0.303,-0.444 0.264,-0.433 0.231,-0.412C0.197,-0.39 0.173,-0.36 0.159,-0.322L0.159,-0L0.071,-0L0.071,-0.519L0.153,-0.519L0.153,-0.401C0.171,-0.437 0.195,-0.466 0.225,-0.488C0.254,-0.511 0.285,-0.523 0.318,-0.526L0.335,-0.526C0.34,-0.526 0.344,-0.526 0.347,-0.525L0.347,-0.445Z" style="fill:rgb(105,226,40);fill-rule:nonzero;"/>
                </g>
                <g transform="matrix(50,0,0,50,1586.002615,526.669447)">
                    <path d="M0.341,-0.023C0.334,-0.02 0.324,-0.015 0.311,-0.01C0.298,-0.005 0.284,0 0.267,0.004C0.25,0.008 0.233,0.01 0.214,0.01C0.193,0.01 0.173,0.006 0.155,-0.002C0.137,-0.009 0.123,-0.021 0.112,-0.037C0.101,-0.054 0.096,-0.074 0.096,-0.099L0.096,-0.45L0.025,-0.45L0.025,-0.519L0.096,-0.519L0.096,-0.693L0.184,-0.693L0.184,-0.519L0.301,-0.519L0.301,-0.45L0.184,-0.45L0.184,-0.126C0.185,-0.107 0.192,-0.094 0.203,-0.085C0.214,-0.076 0.228,-0.071 0.243,-0.071C0.26,-0.071 0.276,-0.074 0.291,-0.08C0.306,-0.086 0.315,-0.09 0.32,-0.093L0.341,-0.023Z" style="fill:rgb(105,226,40);fill-rule:nonzero;"/>
                </g>
                <g transform="matrix(50,0,0,50,1603.602615,526.669447)">
                </g>
            </g>
            <g transform="matrix(1.331309,0,0,1.331309,409.066675,-178.960969)">
                <g transform="matrix(0,-2.268707,2.268707,0,-5398.080253,6370.032145)">
                    <path d="M2302.541,2926.731C2302.608,2927.192 2302.643,2927.661 2302.643,2928.135L2302.643,2951.243C2302.643,2951.891 2302.384,2952.513 2301.925,2952.971L2274.976,2979.822C2274.505,2980.291 2273.735,2980.529 2273.118,2980.534C2283.914,2961.501 2301.069,2937.092 2302.541,2926.731ZM2302.248,2925.745L2302.254,2925.406C2302.28,2925.496 2302.304,2925.586 2302.328,2925.676L2302.248,2925.745Z" style="fill:rgb(105,226,40);"/>
                </g>
                <g transform="matrix(0,2.268707,2.268707,-0,-5398.080253,-3944.047893)">
                    <path d="M2302.541,2926.731C2302.608,2927.192 2302.643,2927.661 2302.643,2928.135L2302.643,2951.243C2302.643,2951.891 2302.384,2952.513 2301.925,2952.971L2274.976,2979.822C2274.505,2980.291 2273.735,2980.529 2273.118,2980.534C2283.914,2961.501 2301.069,2937.092 2302.541,2926.731ZM2302.248,2925.745L2302.254,2925.406C2302.28,2925.496 2302.304,2925.586 2302.328,2925.676L2302.248,2925.745Z" style="fill:rgb(46,108,15);"/>
                </g>
                <g transform="matrix(0,-0.927278,0.93718,0,-1689.802357,3780.791182)">
                    <path d="M2769.179,3258.372L2769.179,3186.06L2841.414,3124.921C2841.414,3147.808 2796.793,3210.202 2769.179,3258.372Z" style="fill:rgb(46,108,15);"/>
                </g>
                <g transform="matrix(0,0.927278,0.93718,-0,-1689.802357,-1354.80693)">
                    <path d="M2769.179,3258.372L2769.179,3186.06L2841.414,3124.921C2841.414,3147.808 2796.793,3210.202 2769.179,3258.372Z" style="fill:rgb(105,226,40);"/>
                </g>
            </g>
        </g>
    </g>
</svg>
