<?xml version="1.0" encoding="UTF-8" standalone="no"?>
<!DOCTYPE svg PUBLIC "-//W3C//DTD SVG 1.1//EN" "http://www.w3.org/Graphics/SVG/1.1/DTD/svg11.dtd">
<svg width="100%" height="100%" viewBox="0 0 232 248" version="1.1" xmlns="http://www.w3.org/2000/svg" xmlns:xlink="http://www.w3.org/1999/xlink" xml:space="preserve" xmlns:serif="http://www.serif.com/" style="fill-rule:evenodd;clip-rule:evenodd;stroke-linejoin:round;stroke-miterlimit:2;">
    <g transform="matrix(1,0,0,1,-1054.678384,-4282.912796)">
        <g transform="matrix(1.850364,0,0,1.850364,-1237.573571,2162.377165)">
            <g transform="matrix(0,-2.268707,2.268707,0,-5398.080253,6370.032145)">
                <path d="M2302.541,2926.731C2302.608,2927.192 2302.643,2927.661 2302.643,2928.135L2302.643,2951.243C2302.643,2951.891 2302.384,2952.513 2301.925,2952.971L2274.976,2979.822C2274.505,2980.291 2273.735,2980.529 2273.118,2980.534C2283.914,2961.501 2301.069,2937.092 2302.541,2926.731ZM2302.248,2925.745L2302.254,2925.406C2302.28,2925.496 2302.304,2925.586 2302.328,2925.676L2302.248,2925.745Z" style="fill:rgb(105,226,40);"/>
            </g>
            <g transform="matrix(0,2.268707,2.268707,-0,-5398.080253,-3944.047893)">
                <path d="M2302.541,2926.731C2302.608,2927.192 2302.643,2927.661 2302.643,2928.135L2302.643,2951.243C2302.643,2951.891 2302.384,2952.513 2301.925,2952.971L2274.976,2979.822C2274.505,2980.291 2273.735,2980.529 2273.118,2980.534C2283.914,2961.501 2301.069,2937.092 2302.541,2926.731ZM2302.248,2925.745L2302.254,2925.406C2302.28,2925.496 2302.304,2925.586 2302.328,2925.676L2302.248,2925.745Z" style="fill:rgb(46,108,15);"/>
            </g>
            <g transform="matrix(0,-0.927278,0.93718,0,-1689.802357,3780.791182)">
                <path d="M2769.179,3258.372L2769.179,3186.06L2841.414,3124.921C2841.414,3147.808 2796.793,3210.202 2769.179,3258.372Z" style="fill:rgb(46,108,15);"/>
            </g>
            <g transform="matrix(0,0.927278,0.93718,-0,-1689.802357,-1354.80693)">
                <path d="M2769.179,3258.372L2769.179,3186.06L2841.414,3124.921C2841.414,3147.808 2796.793,3210.202 2769.179,3258.372Z" style="fill:rgb(105,226,40);"/>
            </g>
        </g>
    </g>
</svg>
